<svg width="16" height="16" viewBox="0 0 16 16" fill="none" xmlns="http://www.w3.org/2000/svg">
<path d="M0.0279589 6.16429C0.082921 5.99457 0.229143 5.87088 0.405183 5.84526L5.3506 5.12448L7.56231 0.629902C7.64102 0.469903 7.8035 0.368622 7.98138 0.368622C8.15929 0.368622 8.32175 0.469903 8.40048 0.629902L10.6123 5.12448L15.5576 5.84526C15.7336 5.87088 15.8799 5.99457 15.9349 6.16426C15.9899 6.33397 15.944 6.52025 15.8166 6.64478L12.2382 10.1433L13.0828 15.0834C13.1129 15.2593 13.0408 15.437 12.8969 15.5419C12.8155 15.6012 12.7191 15.6314 12.6222 15.6314C12.5478 15.6314 12.4731 15.6136 12.4048 15.5775L7.98141 13.2451L3.55826 15.5775C3.40076 15.6605 3.20998 15.6467 3.06607 15.5418C2.92215 15.437 2.85002 15.2592 2.88009 15.0833L3.72499 10.1433L0.146202 6.64475C0.0188303 6.52025 -0.0270653 6.33397 0.0279589 6.16429Z" fill="#FFB800"/>
</svg>
