<svg  width="0" height="0" class="hidden">
  <symbol  xmlns="http://www.w3.org/2000/svg" viewBox="0 0 47 47" id="group-box">
    <rect width="47" height="47" rx="3" fill="#F6F6F6"></rect>
    <path d="M12.0444 32.4445H7.51111C6.67655 32.4445 6 33.121 6 33.9556V38.4889C6 39.3235 6.67655 40 7.51111 40H12.0444C12.879 40 13.5556 39.3235 13.5556 38.4889V33.9556C13.5556 33.121 12.879 32.4445 12.0444 32.4445Z" fill="inherit"></path>
    <path d="M26.2111 32.4445H21.6778C20.8432 32.4445 20.1667 33.121 20.1667 33.9556V38.4889C20.1667 39.3235 20.8432 40 21.6778 40H26.2111C27.0457 40 27.7222 39.3235 27.7222 38.4889V33.9556C27.7222 33.121 27.0457 32.4445 26.2111 32.4445Z" fill="inherit"></path>
    <path d="M40.3778 32.4445H35.8444C35.0099 32.4445 34.3333 33.121 34.3333 33.9556V38.4889C34.3333 39.3235 35.0099 40 35.8444 40H40.3778C41.2123 40 41.8889 39.3235 41.8889 38.4889V33.9556C41.8889 33.121 41.2123 32.4445 40.3778 32.4445Z" fill="inherit"></path>
    <path d="M12.0444 19.2222H7.51111C6.67655 19.2222 6 19.8987 6 20.7333V25.2666C6 26.1012 6.67655 26.7777 7.51111 26.7777H12.0444C12.879 26.7777 13.5556 26.1012 13.5556 25.2666V20.7333C13.5556 19.8987 12.879 19.2222 12.0444 19.2222Z" fill="inherit"></path>
    <path d="M26.2111 19.2222H21.6778C20.8432 19.2222 20.1667 19.8987 20.1667 20.7333V25.2666C20.1667 26.1012 20.8432 26.7777 21.6778 26.7777H26.2111C27.0457 26.7777 27.7222 26.1012 27.7222 25.2666V20.7333C27.7222 19.8987 27.0457 19.2222 26.2111 19.2222Z" fill="inherit"></path>
    <path d="M40.3778 19.2222H35.8444C35.0099 19.2222 34.3333 19.8987 34.3333 20.7333V25.2666C34.3333 26.1012 35.0099 26.7777 35.8444 26.7777H40.3778C41.2123 26.7777 41.8889 26.1012 41.8889 25.2666V20.7333C41.8889 19.8987 41.2123 19.2222 40.3778 19.2222Z" fill="inherit"></path>
    <path d="M12.0444 6H7.51111C6.67655 6 6 6.67655 6 7.51111V12.0444C6 12.879 6.67655 13.5556 7.51111 13.5556H12.0444C12.879 13.5556 13.5556 12.879 13.5556 12.0444V7.51111C13.5556 6.67655 12.879 6 12.0444 6Z" fill="inherit"></path>
    <path d="M26.2111 6H21.6778C20.8432 6 20.1667 6.67655 20.1667 7.51111V12.0444C20.1667 12.879 20.8432 13.5556 21.6778 13.5556H26.2111C27.0457 13.5556 27.7222 12.879 27.7222 12.0444V7.51111C27.7222 6.67655 27.0457 6 26.2111 6Z" fill="inherit"></path>
    <path d="M40.3778 6H35.8444C35.0099 6 34.3333 6.67655 34.3333 7.51111V12.0444C34.3333 12.879 35.0099 13.5556 35.8444 13.5556H40.3778C41.2123 13.5556 41.8889 12.879 41.8889 12.0444V7.51111C41.8889 6.67655 41.2123 6 40.3778 6Z" fill="inherit"></path>
  </symbol>
  <symbol  xmlns="http://www.w3.org/2000/svg" viewBox="0 0 47 47" id="group-line">
    <rect width="47" height="47" rx="3" fill="#F6F6F6"></rect>
    <path d="M38.4 34H30.6C29.1641 34 28 34.6268 28 35.4V39.6C28 40.3732 29.1641 41 30.6 41H38.4C39.8359 41 41 40.3732 41 39.6V35.4C41 34.6268 39.8359 34 38.4 34Z" fill="#inherit"></path>
    <path d="M16.4 34H8.6C7.16406 34 6 34.6268 6 35.4V39.6C6 40.3732 7.16406 41 8.6 41H16.4C17.8359 41 19 40.3732 19 39.6V35.4C19 34.6268 17.8359 34 16.4 34Z" fill="#inherit"></path>
    <path d="M38.4 20H30.6C29.1641 20 28 20.6268 28 21.4V25.6C28 26.3732 29.1641 27 30.6 27H38.4C39.8359 27 41 26.3732 41 25.6V21.4C41 20.6268 39.8359 20 38.4 20Z" fill="#inherit"></path>
    <path d="M16.4 20H8.6C7.16406 20 6 20.6268 6 21.4V25.6C6 26.3732 7.16406 27 8.6 27H16.4C17.8359 27 19 26.3732 19 25.6V21.4C19 20.6268 17.8359 20 16.4 20Z" fill="#inherit"></path>
    <path d="M38.4 6H30.6C29.1641 6 28 6.6268 28 7.4V11.6C28 12.3732 29.1641 13 30.6 13H38.4C39.8359 13 41 12.3732 41 11.6V7.4C41 6.6268 39.8359 6 38.4 6Z" fill="#inherit"></path>
    <path d="M16.4 6H8.6C7.16406 6 6 6.6268 6 7.4V11.6C6 12.3732 7.16406 13 8.6 13H16.4C17.8359 13 19 12.3732 19 11.6V7.4C19 6.6268 17.8359 6 16.4 6Z" fill="#inherit"></path>
  </symbol>
  <symbol fill="none" xmlns="http://www.w3.org/2000/svg" viewBox="0 0 32 36" id="hide-filter">
    <g clip-path="url(#clip0_862_5407)">
      <path d="M13.7804 28.1251H1.13878C0.510161 28.1251 9.68073e-07 28.6291 9.95549e-07 29.2501C1.02303e-06 29.8711 0.510218 30.3751 1.13878 30.3751H13.7803C14.3076 32.9423 16.6046 34.8751 19.3593 34.8751C22.114 34.8751 24.4108 32.9423 24.938 30.3751H30.7469C31.3755 30.3751 31.8857 29.8711 31.8857 29.2501C31.8857 28.6291 31.3755 28.1251 30.7469 28.1251H24.9383C24.411 25.5578 22.114 23.6251 19.3593 23.6251C16.6047 23.6251 14.3076 25.5578 13.7804 28.1251ZM22.7755 29.2501C22.7755 31.1142 21.2463 32.6251 19.3593 32.6251C17.4723 32.6251 15.9429 31.1142 15.9429 29.2501C15.9429 27.3859 17.4723 25.8751 19.3593 25.8751C21.2463 25.8751 22.7755 27.3859 22.7755 29.2501ZM2.39261 16.875H1.13878C0.510161 16.875 4.70298e-07 17.3791 4.97775e-07 18C5.25251e-07 18.621 0.510161 19.125 1.13878 19.125H2.39255C2.9198 21.6923 5.21671 23.6251 7.97145 23.6251C10.7262 23.6251 13.023 21.6923 13.5503 19.125H30.7469C31.3755 19.125 31.8857 18.621 31.8857 18C31.8857 17.379 31.3755 16.875 30.7469 16.875H13.5503C13.0231 14.3078 10.7262 12.375 7.9715 12.375C5.21682 12.375 2.91984 14.3078 2.39261 16.875ZM11.3878 18C11.3878 19.8642 9.8584 21.375 7.97145 21.375C6.08448 21.375 4.5551 19.8642 4.5551 18C4.5551 16.1359 6.08448 14.625 7.97145 14.625C9.8584 14.625 11.3878 16.1359 11.3878 18ZM18.3355 5.62502H1.13878C0.510161 5.62502 -2.74764e-08 6.12906 0 6.75001C2.74741e-08 7.37097 0.510161 7.87501 1.13878 7.87501H18.3355C18.8627 10.4423 21.1597 12.375 23.9143 12.375C26.669 12.375 28.9659 10.4423 29.4931 7.87501H30.7469C31.3755 7.87501 31.8857 7.37097 31.8857 6.75001C31.8857 6.12906 31.3755 5.62502 30.7469 5.62502H29.4931C28.9659 3.05774 26.669 1.125 23.9143 1.125C21.1597 1.125 18.8628 3.05774 18.3355 5.62502ZM27.3306 6.75001C27.3306 8.61414 25.8012 10.125 23.9143 10.125C22.0274 10.125 20.498 8.61414 20.498 6.75001C20.498 4.88587 22.0274 3.37499 23.9143 3.37499C25.8012 3.37499 27.3306 4.88587 27.3306 6.75001Z" fill="#63A60E"></path>
    </g>
    <defs>
      <clipPath id="clip0_862_5407">
        <rect width="31.8857" height="36" fill="white"></rect>
      </clipPath>
    </defs>
  </symbol>
</svg>